# Blender v2.79 (sub 0) OBJ File: 'dodecahedron.blend'
# www.blender.org
mtllib dodecahedron.mtl
o Solid.002
v 0.552224 0.552225 -0.552224
v 0.552224 -0.552224 -0.552224
v 0.552224 0.552225 0.552224
v 0.552224 -0.552224 0.552224
v -0.552224 0.552224 -0.552224
v -0.552224 -0.552224 -0.552224
v -0.552224 0.552224 0.552224
v -0.552224 -0.552224 0.552224
v 0.341293 0.000000 -0.893518
v -0.341293 0.000000 -0.893518
v 0.341293 0.000000 0.893518
v -0.341293 0.000000 0.893518
v 0.893517 0.341294 0.000000
v 0.893518 -0.341293 0.000000
v -0.893518 0.341293 0.000000
v -0.893518 -0.341293 0.000000
v -0.000000 0.893518 -0.341293
v -0.000000 0.893518 0.341293
v 0.000000 -0.893518 -0.341293
v 0.000000 -0.893518 0.341293
vn 0.0000 -0.5257 0.8507
vn -0.8507 -0.0000 0.5257
vn -0.5257 -0.8507 0.0000
vn 0.0000 0.5257 0.8507
vn -0.8507 -0.0000 -0.5257
vn 0.5257 -0.8507 0.0000
vn 0.8507 0.0000 0.5257
vn 0.0000 -0.5257 -0.8507
vn -0.5257 0.8507 -0.0000
vn 0.5257 0.8507 -0.0000
vn 0.8507 0.0000 -0.5257
vn 0.0000 0.5257 -0.8507
usemtl None
s off
f 1//1 17//1 5//1 9//1
f 9//1 5//1 10//1
f 1//2 9//2 2//2 13//2
f 13//2 2//2 14//2
f 1//3 13//3 3//3 17//3
f 17//3 3//3 18//3
f 9//4 10//4 6//4 2//4
f 2//4 6//4 19//4
f 13//5 14//5 4//5 3//5
f 3//5 4//5 11//5
f 17//6 18//6 7//6 5//6
f 5//6 7//6 15//6
f 10//7 5//7 15//7 6//7
f 6//7 15//7 16//7
f 7//8 18//8 3//8 12//8
f 12//8 3//8 11//8
f 4//9 14//9 2//9 20//9
f 20//9 2//9 19//9
f 8//10 20//10 19//10 16//10
f 16//10 19//10 6//10
f 8//11 16//11 15//11 12//11
f 12//11 15//11 7//11
f 8//12 12//12 11//12 20//12
f 20//12 11//12 4//12
